<?xml version="1.0" encoding="UTF-8" standalone="no"?>
<!DOCTYPE svg PUBLIC "-//W3C//DTD SVG 1.1//EN" "http://www.w3.org/Graphics/SVG/1.1/DTD/svg11.dtd">
<svg width="100%" height="100%" viewBox="0 0 500 500" version="1.1" xmlns="http://www.w3.org/2000/svg" xmlns:xlink="http://www.w3.org/1999/xlink" xml:space="preserve" xmlns:serif="http://www.serif.com/" style="fill-rule:evenodd;clip-rule:evenodd;stroke-linejoin:round;stroke-miterlimit:2;">
    <g id="Home" transform="matrix(0.955408,0,0,0.955408,11.148,24.046)">
        <path d="M210.5,440.945C215.992,440.945 220.445,436.492 220.445,431L220.445,294.945C220.445,294.945 279.555,294.945 279.555,294.945C279.555,294.945 279.555,431 279.555,431C279.555,436.492 284.008,440.945 289.5,440.945L387,440.945C392.492,440.945 396.945,436.492 396.945,431L396.945,204.945C396.945,204.945 457.437,204.945 457.437,204.945C461.732,204.945 465.542,202.187 466.884,198.107C468.226,194.027 466.797,189.546 463.34,186.997L255.903,33.997C252.393,31.408 247.607,31.408 244.097,33.997L36.66,186.997C33.203,189.546 31.774,194.027 33.116,198.107C34.458,202.187 38.268,204.945 42.563,204.945L95.055,204.945C95.055,204.945 95.055,431 95.055,431C95.055,436.492 99.508,440.945 105,440.945L210.5,440.945ZM200.555,421.055L114.945,421.055C114.945,421.055 114.945,195 114.945,195C114.945,189.508 110.492,185.055 105,185.055L72.801,185.055C120.569,149.822 224.208,73.381 250,54.357C275.792,73.381 379.431,149.822 427.199,185.055C427.199,185.055 387,185.055 387,185.055C381.508,185.055 377.055,189.508 377.055,195L377.055,421.055C377.055,421.055 299.445,421.055 299.445,421.055C299.445,421.055 299.445,285 299.445,285C299.445,279.508 294.992,275.055 289.5,275.055L210.5,275.055C205.008,275.055 200.555,279.508 200.555,285L200.555,421.055L200.555,421.055Z"/>
    </g>
</svg>
